<?xml version="1.0"?>
<svg xmlns="http://www.w3.org/2000/svg" viewBox="0 0 64 64" width="512" height="512"><g id="shopping_cart_&#xB7;_ecommerce_&#xB7;_online_&#xB7;_shirt_&#xB7;_buy" data-name="shopping cart &#xB7; ecommerce &#xB7; online &#xB7; shirt &#xB7; buy"><path d="M42,23a1,1,0,0,0,1,1H53a1,1,0,0,0,1-1V16.281l2.757.689A1,1,0,0,0,58,16V12a1,1,0,0,0-.756-.97l-3.983-1a.992.992,0,0,0-.243-.03H51a1,1,0,0,0-1,1,2,2,0,0,1-4,0,1,1,0,0,0-1-1H42.975a1.006,1.006,0,0,0-.244.03l-3.975,1A1,1,0,0,0,38,12v4a1,1,0,0,0,1.243.97L42,16.281Zm-2-8.281V12.78L43.1,12h1.027a4,4,0,0,0,7.748,0h1.02L56,12.78v1.939l-2.757-.689A1,1,0,0,0,52,15v7H44V15a1,1,0,0,0-1.243-.97Z"/><path d="M48,2A14.015,14.015,0,0,0,34,16a13.869,13.869,0,0,0,1.37,6H17.36L16.19,10.89A3.2,3.2,0,0,0,13,8H5a2.922,2.922,0,0,0-2.11.88,2.966,2.966,0,0,0-.81,2.8A3.133,3.133,0,0,0,5.16,14h4.95l3.77,34.01A5,5,0,0,0,14,58h5.1a5,5,0,0,0,9.8,0H39.1a5,5,0,0,0,9.8,0H53a1,1,0,0,0,0-2H48.9a5,5,0,0,0-9.8,0H28.9a5,5,0,0,0-9.8,0H14a3,3,0,0,1,0-6H52.35a3,3,0,0,0,2.94-2.43l4.69-24.36A13.973,13.973,0,0,0,48,2ZM44,54a3,3,0,1,1-3,3A3.009,3.009,0,0,1,44,54ZM24,54a3,3,0,1,1-3,3A3.009,3.009,0,0,1,24,54Zm29.33-6.81a1,1,0,0,1-.98.81H15.9L12.09,13.77A2,2,0,0,0,10.1,12H5.16a1.131,1.131,0,0,1-1.13-.77.949.949,0,0,1,.28-.94A.928.928,0,0,1,5,10h8a1.213,1.213,0,0,1,1.2,1.1l1.27,12a1,1,0,0,0,.99.9H36.53a14.081,14.081,0,0,0,1.69,2H16.85a1,1,0,0,0-.74.33,1.036,1.036,0,0,0-.26.77l1.76,18a1.007,1.007,0,0,0,1,.9H51a1,1,0,0,0,.99-.84l2.73-16.38v-.01l.09-.55a13.642,13.642,0,0,0,2.52-1.81ZM36,38V34h7.22l-.45,4Zm6.55,2-.44,4H36V40ZM36,32V28h4.83a13.848,13.848,0,0,0,2.9,1.33L43.44,32Zm-8.77,6-.45-4H34v4ZM34,40v4H27.89l-.44-4Zm-7.44-8-.44-4H34v4Zm-1.79,2,.45,4H18.93l-.39-4Zm-6.43-2-.39-4h6.16l.44,4Zm7.1,8,.44,4H19.52l-.39-4Zm26.38-6-.67,4H44.78l.45-4Zm-6.37-2,.24-2.21A13.592,13.592,0,0,0,48,30a13.884,13.884,0,0,0,4.62-.8L52.15,32Zm5.37,8-.67,4H44.12l.44-4ZM48,28A12,12,0,1,1,60,16,12.01,12.01,0,0,1,48,28Z"/></g></svg>
