<?xml version="1.0"?>
<svg xmlns="http://www.w3.org/2000/svg" xmlns:xlink="http://www.w3.org/1999/xlink" version="1.1" id="Capa_1" x="0px" y="0px" viewBox="0 0 512.002 512.002" style="enable-background:new 0 0 512.002 512.002;" xml:space="preserve" width="512" height="512" class=""><g><g>
	<g>
		<path d="M504.501,285h-25.784c-1.375-5.225-3.382-10.263-5.964-15.016c3.996-0.166,7.186-3.448,7.186-7.484    c0-4.143-3.357-7.5-7.5-7.5h-6.5v-62.5c0-15.163-12.337-27.5-27.5-27.5h-50c-15.163,0-27.5,12.337-27.5,27.5v2.5h-65.438v-62.5    c0-4.143-3.357-7.5-7.5-7.5h-100c-4.143,0-7.5,3.357-7.5,7.5V210h-16.548c-2.378-8.375-8.63-15.132-16.691-18.204    c10.869-9.626,17.739-23.67,17.739-39.296v-30c0-28.948-23.552-52.5-52.5-52.5s-52.5,23.552-52.5,52.5v30    c0,15.626,6.87,29.67,17.739,39.296c-8.253,3.145-14.616,10.15-16.861,18.801c-17.529,3.138-30.878,18.485-30.878,36.903V285    h-22.5c-4.143,0-7.5,3.357-7.5,7.5v172c0,4.143,3.357,7.5,7.5,7.5h7.5v22.5c0,4.143,3.357,7.5,7.5,7.5s7.5-3.357,7.5-7.5V472    h324.5c4.143,0,7.5-3.357,7.5-7.5s-3.357-7.5-7.5-7.5h-339.5V330h345.938v37.5c0,4.143,3.357,7.5,7.5,7.5h7.5v114.095    l-24.872,8.29c-3.93,1.31-6.053,5.558-4.743,9.487c1.048,3.143,3.974,5.13,7.114,5.13c0.786,0,1.586-0.125,2.373-0.387l30-10    c3.063-1.021,5.128-3.887,5.128-7.115V472h45v17.095l-24.872,8.29c-3.93,1.31-6.053,5.558-4.743,9.487    c1.048,3.143,3.974,5.13,7.114,5.13c0.786,0,1.586-0.125,2.373-0.387l30-10c3.063-1.021,5.128-3.887,5.128-7.115V472h31.063v22.5    c0,4.143,3.357,7.5,7.5,7.5s7.5-3.357,7.5-7.5V472h7.5c4.143,0,7.5-3.357,7.5-7.5v-172C512,288.357,508.644,285,504.501,285z     M195.501,140h85v55h-7.5c-4.143,0-7.5,3.357-7.5,7.5s3.357,7.5,7.5,7.5h7.5v45h-85V140z M75,122.5C75,101.822,91.823,85,112.5,85    c20.678,0,37.5,16.822,37.5,37.5v2.5h-15.139c-5.653-6.324-13.747-10-22.361-10c-8.614,0-16.708,3.676-22.361,10H75V122.5z     M75,152.5V140h18.791c2.502,0,4.84-1.248,6.232-3.327c2.797-4.179,7.462-6.673,12.477-6.673c5.015,0,9.68,2.494,12.477,6.673    c1.393,2.079,3.73,3.327,6.232,3.327H150v12.5c0,20.678-16.822,37.5-37.5,37.5C91.823,190,75,173.178,75,152.5z M60,226.29v36.21    c0,4.143,3.357,7.5,7.5,7.5s7.5-3.357,7.5-7.5v-45c0-6.893,5.607-12.5,12.5-12.5h50c6.893,0,12.5,5.607,12.5,12.5V285h-105    c0,0,0-37.5,0-37.5C45,237.723,51.271,229.386,60,226.29z M360.939,315H15v-15h345.938V315z M360.939,255.151    c-3.424,0.695-6,3.721-6,7.349s2.576,6.655,6,7.349V285H165.001v-60h15.5v37.5c0,4.143,3.357,7.5,7.5,7.5h100    c4.143,0,7.5-3.357,7.5-7.5V210h65.438V255.151z M405.71,180h15.457v15H405.71V180z M405.71,210h15.457v45H405.71V210z     M405.71,270h15.457v75H405.71V270z M375.938,192.5c0-6.893,5.607-12.5,12.5-12.5h2.271v15h-14.771V192.5z M390.708,360h-14.771    v-90h14.771V360z M390.71,255h-14.771v-45h14.771V255z M435.937,457h-44.999v-82h7.271c4.143,0,7.5-3.357,7.5-7.5V360h15.457v7.5    c0,4.143,3.357,7.5,7.5,7.5h7.271V457z M436.167,180h2.271c6.893,0,12.5,5.607,12.5,12.5V255h-14.771V180z M436.167,360v-90H454.9    c7.133,9.183,11.038,20.478,11.038,32.165V360H436.167z M497,457h-46.063v-82h22.5c4.143,0,7.5-3.357,7.5-7.5V330H497V457z     M497.001,315h-16.063v-12.835c0-0.723-0.023-1.444-0.046-2.165h16.109V315z" data-original="#000000" class="active-path" style="fill:#FFFFFF" data-old_color="#000000"/>
	</g>
</g><g>
	<g>
		<path d="M483.742,82.196c-2.93-2.928-7.678-2.928-10.607,0l-7.748,7.748c-2.563-17.699-13.985-32.564-29.613-39.943    c4.762-5.312,7.665-12.323,7.665-20.001c0-16.542-13.458-30-30-30s-30,13.458-30,30c0,7.678,2.903,14.69,7.665,20.001    c-15.628,7.379-27.05,22.243-29.613,39.943l-7.748-7.748c-2.93-2.928-7.678-2.928-10.607,0c-2.929,2.93-2.929,7.678,0,10.607    l19.999,20.001c0.037,0.037,0.077,0.068,0.115,0.104C369.849,134.36,389.85,150,413.438,150c23.588,0,43.59-15.64,50.189-37.093    c0.037-0.036,0.078-0.067,0.115-0.104l20-20C486.67,89.873,486.67,85.125,483.742,82.196z M413.438,15c8.271,0,15,6.729,15,15    s-6.729,15-15,15s-15-6.729-15-15S405.167,15,413.438,15z M413.438,135c-20.678,0-37.5-16.822-37.5-37.5S392.76,60,413.438,60    c20.678,0,37.5,16.822,37.5,37.5S434.116,135,413.438,135z" data-original="#000000" class="active-path" style="fill:#FFFFFF" data-old_color="#000000"/>
	</g>
</g><g>
	<g>
		<path d="M258.001,225h-38.5c-4.143,0-7.5,3.357-7.5,7.5s3.357,7.5,7.5,7.5h38.5c4.143,0,7.5-3.357,7.5-7.5    S262.144,225,258.001,225z" data-original="#000000" class="active-path" style="fill:#FFFFFF" data-old_color="#000000"/>
	</g>
</g><g>
	<g>
		<path d="M187.501,345h-150c-4.143,0-7.5,3.357-7.5,7.5v82c0,4.143,3.357,7.5,7.5,7.5h150c4.143,0,7.5-3.357,7.5-7.5v-82    C195.001,348.357,191.644,345,187.501,345z M180.001,427h-135v-67h135V427z" data-original="#000000" class="active-path" style="fill:#FFFFFF" data-old_color="#000000"/>
	</g>
</g></g> </svg>
