<svg height="512" viewBox="0 0 60 60" width="512" xmlns="http://www.w3.org/2000/svg"><g id="Page-1" fill="none" fill-rule="evenodd"><g id="093---Payday" fill-rule="nonzero" transform="translate(-1)"><path id="Shape" d="m56 7v6h-46v-8h44c1.1032019.0032948 1.9967052.89679813 2 2z" fill="#f44335"/><path id="Shape" d="m54 5h-3c1.1032019.0032948 1.9967052.89679813 2 2v6h3v-6c-.0032948-1.10320187-.8967981-1.9967052-2-2z" fill="#c81e1e"/><path id="Shape" d="m56 13v17h-40c-1.1032019.0032948-1.9967052.8967981-2 2v12h-2c-1.1032019-.0032948-1.9967052-.8967981-2-2v-29z" fill="#f5f5f5"/><path id="Rectangle-path" d="m53 13h3v17h-3z" fill="#cfd8dc"/><path id="Shape" d="m10 5-7.939 32.5c-.15919302.5833393-.0431054 1.2074457.31519268 1.6945285.35829807.4870827.91952675.7837434 1.52380732.8054715h6.1z" fill="#cfd8dc"/><rect id="Rectangle-path" fill="#7f8e94" height="8" rx="2" width="4" x="48" y="1"/><rect id="Rectangle-path" fill="#7f8e94" height="8" rx="2" width="4" x="37" y="1"/><rect id="Rectangle-path" fill="#7f8e94" height="8" rx="2" width="4" x="26" y="1"/><rect id="Rectangle-path" fill="#7f8e94" height="8" rx="2" width="4" x="15" y="1"/><rect id="Rectangle-path" fill="#60a917" height="29" rx="2" width="46" x="14" y="30"/><path id="Shape" d="m58 30h-3c1.1032019.0032948 1.9967052.8967981 2 2v25c-.0032948 1.1032019-.8967981 1.9967052-2 2h3c1.1032019-.0032948 1.9967052-.8967981 2-2v-25c-.0032948-1.1032019-.8967981-1.9967052-2-2z" fill="#549414"/><circle id="Oval" cx="18" cy="21" fill="#ffdc00" r="3"/><circle id="Oval" cx="28" cy="21" fill="#ffdc00" r="3"/><circle id="Oval" cx="48" cy="21" fill="#ffdc00" r="3"/><circle id="Oval" cx="23" cy="44" fill="#008a00" r="3"/><circle id="Oval" cx="51" cy="44" fill="#008a00" r="3"/><path id="Shape" d="m60 51v6c-.0032948 1.1032019-.8967981 1.9967052-2 2h-6c0-2.1217319.8428547-4.1565632 2.3431458-5.6568542 1.500291-1.5002911 3.5351223-2.3431458 5.6568542-2.3431458z" fill="#a4c400"/><path id="Shape" d="m57 51.586v5.414c-.0032948 1.1032019-.8967981 1.9967052-2 2h3c1.1032019-.0032948 1.9967052-.8967981 2-2v-6c-1.0284227.0001465-2.047117.1991315-3 .586z" fill="#90ac00"/><path id="Shape" d="m22 30c0 4.418278-3.581722 8-8 8v-6c.0032948-1.1032019.8967981-1.9967052 2-2z" fill="#a4c400"/><path id="Shape" d="m22 59h-6c-1.1032019-.0032948-1.9967052-.8967981-2-2v-6c2.1217319 0 4.1565632.8428547 5.6568542 2.3431458 1.5002911 1.500291 2.3431458 3.5351223 2.3431458 5.6568542z" fill="#a4c400"/><path id="Shape" d="m60 32v6c-4.418278 0-8-3.581722-8-8h6c1.1032019.0032948 1.9967052.8967981 2 2z" fill="#a4c400"/><path id="Shape" d="m58 30h-3c1.1032019.0032948 1.9967052.8967981 2 2v5.414c.952883.3868685 1.9715773.5858535 3 .586v-6c-.0032948-1.1032019-.8967981-1.9967052-2-2z" fill="#90ac00"/><path id="Shape" d="m37 25c-.2651948-.0000566-.5195073-.1054506-.707-.293l-1-1c-.3789722-.3923789-.3735524-1.0160848.0121814-1.4018186s1.0094397-.3911536 1.4018186-.0121814l.138.138 3.323-4.986c.1982824-.297245.5400812-.4661282.8966441-.4430331s.6737195.2346599.832.555c.1582805.32034.1336383.7007881-.0646441.9980331l-4 6c-.1648955.250626-.4336016.4139788-.732.445-.035 0-.067 0-.1 0z" fill="#60a917"/><path id="Shape" d="m38 44.1v-5.916c1.1943509.4222546 1.9947486 1.5492146 2 2.816 0 .5522847.4477153 1 1 1s1-.4477153 1-1c-.0029983-2.3751008-1.6735832-4.4215673-4-4.9v-1.1c0-.5522847-.4477153-1-1-1s-1 .4477153-1 1v1.1c-2.330324.4731925-4.0050126 2.5221184-4.0050126 4.9s1.6746886 4.4268075 4.0050126 4.9v5.917c-1.1946951-.4223781-1.9951701-1.5498471-2-2.817 0-.5522847-.4477153-1-1-1s-1 .4477153-1 1c.0029983 2.3751008 1.6735832 4.4215673 4 4.9v1.1c0 .5522847.4477153 1 1 1s1-.4477153 1-1v-1.1c2.330324-.4731925 4.0050126-2.5221184 4.0050126-4.9s-1.6746886-4.4268075-4.0050126-4.9zm-4-3.1c.0052514-1.2667854.8056491-2.3937454 2-2.816v5.632c-1.1943509-.4222546-1.9947486-1.5492146-2-2.816zm4 10.816v-5.632c1.1981296.4174114 2.0009455 1.5472421 2.0009455 2.816s-.8028159 2.3985886-2.0009455 2.816z" fill="#f5f5f5"/><g fill="#000"><path id="Shape" d="m58 29h-1v-22c0-1.65685425-1.3431458-3-3-3h-1v-1c0-1.65685425-1.3431458-3-3-3s-3 1.34314575-3 3v1h-5v-1c0-1.65685425-1.3431458-3-3-3s-3 1.34314575-3 3v1h-5v-1c0-1.65685425-1.3431458-3-3-3s-3 1.34314575-3 3v1h-5v-1c0-1.65685425-1.3431458-3-3-3s-3 1.34314575-3 3v1h-4c-.45717216.00351819-.85182929.32114885-.953.767h-.019l-7.939 32.498c-.22868392.9156329-.02163343 1.8855593.561 2.628.53875333.6967261 1.36927324 1.1053419 2.25 1.107h5.1v1c0 1.6568542 1.3431458 3 3 3h1v12c0 1.6568542 1.3431458 3 3 3h42c1.6568542 0 3-1.3431458 3-3v-25c0-1.6568542-1.3431458-3-3-3zm1 3v4.92c-3.0659953-.445776-5.474224-2.8540047-5.92-5.92h4.92c.5522847 0 1 .4477153 1 1zm-44 6.941c4.1743211-.4725857 7.4684143-3.7666789 7.941-7.941h28.118c.4725857 4.1743211 3.7666789 7.4684143 7.941 7.941v11.118c-4.1743211.4725857-7.4684143 3.7666789-7.941 7.941h-28.118c-.4725857-4.1743211-3.7666789-7.4684143-7.941-7.941zm0-2.021v-4.92c0-.5522847.4477153-1 1-1h4.92c-.445776 3.0659953-2.8540047 5.474224-5.92 5.92zm34-33.92c0-.55228475.4477153-1 1-1s1 .44771525 1 1v4c0 .55228475-.4477153 1-1 1s-1-.44771525-1-1zm-11 0c0-.55228475.4477153-1 1-1s1 .44771525 1 1v4c0 .55228475-.4477153 1-1 1s-1-.44771525-1-1zm-11 0c0-.55228475.4477153-1 1-1s1 .44771525 1 1v4c0 .55228475-.4477153 1-1 1s-1-.44771525-1-1zm-11 0c0-.55228475.4477153-1 1-1s1 .44771525 1 1v4c0 .55228475-.4477153 1-1 1s-1-.44771525-1-1zm-2 3v1c0 1.65685425 1.3431458 3 3 3s3-1.34314575 3-3v-1h5v1c0 1.65685425 1.3431458 3 3 3s3-1.34314575 3-3v-1h5v1c0 1.65685425 1.3431458 3 3 3s3-1.34314575 3-3v-1h5v1c0 1.65685425 1.3431458 3 3 3s3-1.34314575 3-3v-1h1c.5522847 0 1 .44771525 1 1v5h-44v-6zm-10.1 33c-.26667658-.00304-.5168147-.1297717-.677-.343-.2024778-.259871-.27302383-.5989353-.191-.918l5.968-24.43v25.691zm8.1 4c-.5522847 0-1-.4477153-1-1v-28h44v15h-39c-1.6568542 0-3 1.3431458-3 3v11zm3 14v-4.92c3.0659953.445776 5.474224 2.8540047 5.92 5.92h-4.92c-.5522847 0-1-.4477153-1-1zm43 1h-4.92c.445776-3.0659953 2.8540047-5.474224 5.92-5.92v4.92c0 .5522847-.4477153 1-1 1z"/><path id="Shape" d="m18 25c2.209139 0 4-1.790861 4-4s-1.790861-4-4-4-4 1.790861-4 4 1.790861 4 4 4zm0-6c1.1045695 0 2 .8954305 2 2s-.8954305 2-2 2-2-.8954305-2-2 .8954305-2 2-2z"/><path id="Shape" d="m28 25c2.209139 0 4-1.790861 4-4s-1.790861-4-4-4-4 1.790861-4 4 1.790861 4 4 4zm0-6c1.1045695 0 2 .8954305 2 2s-.8954305 2-2 2-2-.8954305-2-2 .8954305-2 2-2z"/><path id="Shape" d="m48 25c2.209139 0 4-1.790861 4-4s-1.790861-4-4-4-4 1.790861-4 4 1.790861 4 4 4zm0-6c1.1045695 0 2 .8954305 2 2s-.8954305 2-2 2-2-.8954305-2-2 .8954305-2 2-2z"/><path id="Shape" d="m27 44c0-2.209139-1.790861-4-4-4s-4 1.790861-4 4 1.790861 4 4 4 4-1.790861 4-4zm-6 0c0-1.1045695.8954305-2 2-2s2 .8954305 2 2-.8954305 2-2 2-2-.8954305-2-2z"/><path id="Shape" d="m51 48c2.209139 0 4-1.790861 4-4s-1.790861-4-4-4-4 1.790861-4 4 1.790861 4 4 4zm0-6c1.1045695 0 2 .8954305 2 2s-.8954305 2-2 2-2-.8954305-2-2 .8954305-2 2-2z"/></g></g></g></svg>