<?xml version="1.0" encoding="iso-8859-1"?>
<!-- Generator: Adobe Illustrator 19.0.0, SVG Export Plug-In . SVG Version: 6.00 Build 0)  -->
<svg version="1.1" id="Capa_1" xmlns="http://www.w3.org/2000/svg" xmlns:xlink="http://www.w3.org/1999/xlink" x="0px" y="0px"
	 viewBox="0 0 512 512" style="enable-background:new 0 0 512 512;" xml:space="preserve">
<g>
	<g>
		<path d="M432,0H80C35.888,0,0,35.888,0,80v1c0,44.112,35.888,80,80,80c0.337,0,0.667-0.034,1-0.051V432c0,44.112,35.888,80,80,80
			h191c44.112,0,80-35.888,80-80c0-11.046-8.954-20-20-20c-11.046,0-20,8.954-20,20c0,22.056-17.944,40-40,40H161
			c-22.056,0-40-17.944-40-40V40h271v292c0,11.046,8.954,20,20,20c11.046,0,20-8.954,20-20V161c44.112,0,80-35.888,80-80v-1
			C512,35.888,476.112,0,432,0z M81,121.051c-0.333-0.017-0.663-0.051-1-0.051c-22.056,0-40-17.944-40-40v-1
			c0-22.056,17.944-40,40-40h1V121.051z M472,81c0,22.056-17.944,40-40,40V40c22.056,0,40,17.944,40,40V81z"/>
	</g>
</g>
<g>
	<g>
		<path d="M256.122,165c-54.037,0-98,40.822-98,91c0,50.178,43.963,91,98,91s98-40.822,98-91
			C354.122,205.822,310.159,165,256.122,165z M256.122,307c-31.981,0-58-22.878-58-51s26.019-51,58-51s58,22.878,58,51
			S288.104,307,256.122,307z"/>
	</g>
</g>
<g>
	<g>
		<circle cx="257" cy="415" r="20"/>
	</g>
</g>
<g>
	<g>
		<circle cx="257" cy="97" r="20"/>
	</g>
</g>
<g>
</g>
<g>
</g>
<g>
</g>
<g>
</g>
<g>
</g>
<g>
</g>
<g>
</g>
<g>
</g>
<g>
</g>
<g>
</g>
<g>
</g>
<g>
</g>
<g>
</g>
<g>
</g>
<g>
</g>
</svg>
